<svg xmlns="http://www.w3.org/2000/svg" xmlns:xlink="http://www.w3.org/1999/xlink" version="1.1" x="0px" y="0px" viewBox="0 0 512 640" style="enable-background:new 0 0 512 512;" xml:space="preserve"><g><g><g><path d="M364.939,440.35L364.939,440.35h-31.96c-2.63,0-5.199-1.069-7.069-2.93c-1.86-1.86-2.931-4.44-2.931-7.07V289.79     c0-2.63,1.07-5.21,2.931-7.07c1.859-1.86,4.439-2.93,7.069-2.93h31.96l0,0c11.21,0.01,21.74,4.38,29.66,12.3     c7.92,7.93,12.29,18.46,12.3,29.66v76.53c-0.01,11.199-4.38,21.75-12.279,29.699C386.689,435.93,376.16,440.33,364.939,440.35z      M342.979,420.35h21.96c5.82,0,11.33-2.31,15.5-6.49c4.17-4.199,6.46-9.729,6.46-15.579v-76.53c0-5.83-2.29-11.34-6.439-15.51     c-4.17-4.16-9.68-6.45-15.521-6.45h-21.96V420.35z"/></g><g><path d="M415.38,428.819L415.38,428.819h-18.48c-2.63,0-5.21-1.06-7.069-2.92c-1.86-1.859-2.931-4.439-2.931-7.069V301.21     c0-2.641,1.07-5.21,2.931-7.08c1.859-1.86,4.439-2.93,7.069-2.93h18.48l0,0l0,0c7.58,0.02,14.7,2.979,20.05,8.33     c5.351,5.35,8.311,12.47,8.32,20.05v80.87c-0.01,7.58-2.97,14.699-8.32,20.05C430.08,425.85,422.96,428.81,415.38,428.819z      M406.899,408.83h8.48c2.24-0.011,4.28-0.86,5.91-2.471c1.609-1.63,2.46-3.67,2.47-5.909v-80.87c-0.01-2.24-0.86-4.28-2.47-5.91     c-1.62-1.61-3.67-2.46-5.91-2.47h-8.48V408.83z"/></g><g><path d="M150.25,440.35H117.2c-11.48-0.03-22.27-4.52-30.4-12.64c-8.13-8.13-12.62-18.93-12.64-30.41v-74.57     c0.02-11.47,4.51-22.26,12.65-30.37c3.96-3.93,8.56-7.029,13.68-9.189c5.3-2.23,10.92-3.37,16.71-3.38l0,0l0,0h33.05     c2.63,0,5.21,1.069,7.07,2.93s2.93,4.44,2.93,7.07v140.56c0,2.63-1.07,5.21-2.93,7.07S152.88,440.35,150.25,440.35z      M117.2,299.79c-6.11,0-11.89,2.399-16.28,6.75c-4.36,4.359-6.76,10.109-6.77,16.189v74.57c0.01,6.1,2.42,11.87,6.79,16.26     c4.39,4.38,10.16,6.79,16.26,6.79h23.05V299.79H117.2z"/></g><g><path d="M84.16,428.83H65.68c-7.59-0.021-14.73-2.98-20.1-8.33c-5.39-5.37-8.36-12.521-8.39-20.15v-80.66     c0.04-7.609,3.02-14.75,8.38-20.109c5.36-5.36,12.5-8.34,20.11-8.38l0,0l0,0h18.48c2.63,0,5.2,1.069,7.07,2.93     c1.86,1.86,2.92,4.439,2.92,7.08v117.62c0,2.63-1.06,5.21-2.92,7.069C89.36,427.76,86.79,428.83,84.16,428.83z M65.68,311.2     c-2.21,0-4.33,0.899-5.97,2.52c-1.62,1.64-2.52,3.76-2.52,5.97v80.66c0.01,2.271,0.88,4.34,2.51,5.98     c1.63,1.609,3.75,2.5,5.98,2.5h8.48V311.2H65.68z"/></g><g><path d="M102.42,303.27c-5.52,0-10-4.489-10-10v-49.14c0-5.51,4.48-10,10-10c5.51,0,10,4.49,10,10v49.14     C112.42,298.78,107.93,303.27,102.42,303.27z"/></g><g><path d="M109.17,193.91c-0.78,0-1.56-0.09-2.32-0.27c-5.37-1.27-8.7-6.67-7.42-12.04c3.93-16.54,9.4-32.34,16.28-46.96     c6.82-14.53,15.01-27.84,24.32-39.57c6.51-8.19,13.61-15.64,21.11-22.12c7.63-6.6,15.75-12.27,24.12-16.85     c17.57-9.61,36.15-14.49,55.21-14.49h0.01c19.06,0,37.629,4.88,55.209,14.49c8.37,4.58,16.49,10.25,24.11,16.84     c7.51,6.49,14.61,13.93,21.11,22.12c9.29,11.64,17.46,24.9,24.279,39.4c6.82,14.5,12.28,30.21,16.221,46.69     c1.279,5.36-2.04,10.77-7.4,12.05c-0.77,0.19-1.55,0.28-2.34,0.28c-4.64,0-8.63-3.16-9.71-7.68     c-7.2-30.17-19.891-57.24-36.69-78.28c-23.62-29.6-53.729-45.9-84.79-45.91c-31.06,0.01-61.18,16.31-84.79,45.9     c-16.91,21.29-29.64,48.5-36.8,78.69c0,0.01,0,0.01,0,0.02C117.81,190.75,113.82,193.91,109.17,193.91z"/></g><g><path d="M378.53,302.729c-5.511,0-10-4.489-10-10v-48.38c0-5.51,4.489-10,10-10c5.52,0,10,4.49,10,10v48.38     C388.53,298.24,384.05,302.729,378.53,302.729z"/></g><g><path d="M415.41,311.2L415.41,311.2h-0.03c-5.5,0-9.98-4.471-10-9.971l-0.11-47.419c0.021-59-17.479-114.49-49.279-156.26     C324.77,56.57,283.74,34,240.48,34c-39.51,0.01-77.87,19.26-108.02,54.21c-1.9,2.2-4.66,3.47-7.58,3.47     c-2.39,0-4.7-0.86-6.52-2.42c-4.18-3.6-4.65-9.93-1.05-14.1C151.21,35.72,194.95,14,240.45,14h0.03c12.7,0,25.4,1.7,37.75,5.04     c11.971,3.24,23.75,8.07,35,14.35c11,6.14,21.59,13.72,31.49,22.52c9.76,8.68,18.91,18.62,27.19,29.53     c8.279,10.89,15.79,22.84,22.31,35.52c6.58,12.78,12.23,26.41,16.79,40.53c9.46,29.28,14.26,60.33,14.26,92.29l0.11,47.39     l0.01,0.01C425.399,306.7,420.92,311.189,415.41,311.2z M65.57,309.79c-5.52,0-10.01-4.48-10.01-10v-45.98     c0.01-30.18,4.31-59.64,12.8-87.56c0.63-2.09,1.9-3.88,3.66-5.16c2.51-1.83,5.84-2.4,8.81-1.5c2.11,0.64,3.9,1.92,5.19,3.69     c1.24,1.72,1.92,3.82,1.91,5.93c-0.01,0.97-0.15,1.93-0.44,2.86c-7.91,26.04-11.92,53.54-11.92,81.74v45.98     C75.57,305.31,71.08,309.79,65.57,309.79z M96.87,132.98c-1.62,0-3.23-0.41-4.67-1.17c-2.36-1.25-4.1-3.35-4.88-5.9     c-0.78-2.55-0.53-5.26,0.73-7.62c1.74-3.28,5.13-5.32,8.84-5.32c1.62,0,3.24,0.41,4.68,1.17c4.87,2.59,6.73,8.65,4.14,13.52     C103.98,130.94,100.59,132.98,96.87,132.98z"/></g><g><path d="M383.83,254.89c-10.36,0-20.4-4.7-27.55-12.9c-6.95-7.94-10.78-18.38-10.79-29.38c0.01-11,3.84-21.44,10.79-29.38     c7.149-8.2,17.189-12.91,27.55-12.91h0.06c10.311,0,20.32,4.71,27.46,12.92c6.94,7.95,10.76,18.38,10.771,29.37     c-0.011,10.99-3.83,21.42-10.771,29.37c-7.14,8.21-17.149,12.91-27.46,12.91H383.83z M383.859,190.32     c-4.68,0.01-9.01,2.12-12.54,6.1c-3.72,4.22-5.84,10.12-5.829,16.19c-0.011,6.07,2.109,11.97,5.829,16.19     c3.53,3.98,7.87,6.09,12.54,6.09c4.62,0,8.921-2.11,12.431-6.08c3.71-4.23,5.84-10.13,5.83-16.2c0.01-6.07-2.12-11.98-5.83-16.21     C392.78,192.43,388.479,190.33,383.859,190.32L383.859,190.32z"/></g><g><path d="M96.69,254.89h-0.05c-10.24,0-20.18-4.72-27.26-12.95c-6.87-7.95-10.65-18.36-10.66-29.33     c0.01-10.97,3.79-21.38,10.66-29.33c7.08-8.24,17.02-12.96,27.26-12.96h0.05c10.28,0,20.23,4.73,27.29,12.97     c6.84,7.93,10.6,18.34,10.61,29.32c-0.01,10.98-3.77,21.39-10.61,29.32C116.92,250.17,106.97,254.89,96.69,254.89z M96.66,190.32     c-4.5,0.01-8.7,2.1-12.16,6.05c-3.68,4.24-5.79,10.16-5.78,16.24c-0.01,6.08,2.1,12,5.78,16.24c3.45,3.95,7.66,6.04,12.16,6.05     c4.53-0.02,8.74-2.1,12.18-6.04c3.67-4.22,5.76-10.15,5.75-16.25c0.01-6.11-2.08-12.03-5.75-16.25     C105.4,192.42,101.19,190.33,96.66,190.32L96.66,190.32z"/></g><g><path d="M334.52,498c-5.52,0-10-4.49-10-10c0-5.521,4.48-10,10-10h48.8c2.41-0.01,4.37-1.97,4.381-4.38     c0-6.521,2.54-12.641,7.14-17.24s10.72-7.14,17.24-7.14h38.35c2.41-0.011,4.37-1.971,4.38-4.381V368.16     c-0.01-2.41-1.97-4.37-4.38-4.38h-14.37c-0.01,0-0.01,0-0.02,0c-5.51,0-9.99-4.48-9.99-10c0-5.511,4.48-10,9.99-10h14.39     c6.51,0.01,12.63,2.539,17.23,7.14c4.609,4.61,7.14,10.729,7.149,17.24v76.699c-0.01,6.511-2.54,12.631-7.149,17.23     c-4.601,4.61-10.721,7.14-17.23,7.14h-38.35c-2.41,0.011-4.38,1.971-4.38,4.391c-0.011,6.51-2.54,12.63-7.141,17.229     c-4.609,4.61-10.729,7.141-17.24,7.15H334.52z"/></g><g><path d="M239.52,308c-12.83,0-25.27-2.521-36.98-7.47c-11.31-4.79-21.47-11.631-30.2-20.36c-8.72-8.72-15.57-18.88-20.36-30.19     c-4.95-11.71-7.46-24.16-7.46-36.98c0-12.83,2.51-25.27,7.46-36.98c4.79-11.31,11.64-21.47,20.36-30.2     c8.73-8.72,18.89-15.57,30.2-20.35c11.71-4.96,24.15-7.47,36.98-7.47c18.98,0,37.299,5.58,52.98,16.13     c7.56,5.09,14.35,11.23,20.17,18.25c5.86,7.07,10.66,14.92,14.25,23.33c2.16,5.07-0.2,10.96-5.271,13.13     c-1.25,0.53-2.569,0.8-3.92,0.8c-4.02,0-7.63-2.38-9.21-6.07c-11.83-27.69-38.91-45.57-68.979-45.57h-0.02     c-20.02,0-38.86,7.8-53.04,21.96c-14.16,14.18-21.96,33.02-21.96,53.04s7.8,38.85,21.96,53.03     c14.18,14.159,33.02,21.96,53.04,21.97c20.02-0.01,38.85-7.811,53.03-21.97c14.16-14.181,21.96-33.01,21.97-53.03     c0-0.01,0-0.01,0-0.02c0.011-5.5,4.49-9.98,10-9.98c5.511,0,10,4.48,10,10c0,12.82-2.52,25.27-7.47,36.98     c-4.79,11.31-11.64,21.47-20.36,30.19c-8.72,8.729-18.88,15.57-30.189,20.36C264.78,305.479,252.34,308,239.52,308z"/></g><g><path d="M214.52,248c-1.82,0-3.6-0.5-5.15-1.43c-2.99-1.8-4.85-5.08-4.85-8.57v-60c0-3.44,1.73-6.59,4.63-8.44     c2.82-1.8,6.56-2.04,9.6-0.62l60,28c3.45,1.61,5.66,4.98,5.76,8.79s-1.92,7.3-5.29,9.09l-60,32     C217.78,247.59,216.16,248,214.52,248z M224.52,193.7v27.63l27.63-14.74L224.52,193.7z"/></g><rect x="174.517" y="447.998" width="20" height="20"/><rect x="204.517" y="447.998" width="20" height="20"/><rect x="234.517" y="447.998" width="20" height="20"/><rect x="264.517" y="447.998" width="20" height="20"/><rect x="294.517" y="447.998" width="20" height="20"/></g></g><text x="0" y="527" fill="#000000" font-size="5px" font-weight="bold" font-family="'Helvetica Neue', Helvetica, Arial-Unicode, Arial, Sans-serif">Created by Flatart</text><text x="0" y="532" fill="#000000" font-size="5px" font-weight="bold" font-family="'Helvetica Neue', Helvetica, Arial-Unicode, Arial, Sans-serif">from the Noun Project</text></svg>